<?xml version="1.0" standalone="no"?>
<!DOCTYPE svg PUBLIC "-//W3C//DTD SVG 20010904//EN"
 "http://www.w3.org/TR/2001/REC-SVG-20010904/DTD/svg10.dtd">
<svg version="1.0" xmlns="http://www.w3.org/2000/svg"
 width="800.000000pt" height="800.000000pt" viewBox="0 0 800.000000 800.000000"
 preserveAspectRatio="xMidYMid meet">
<metadata>
Created by potrace 1.11, written by Peter Selinger 2001-2013
</metadata>
<g transform="translate(0.000000,800.000000) scale(0.100000,-0.100000)"
fill="#000000" stroke="none">
<path d="M3789 7956 c-2 -2 -52 -7 -112 -10 -59 -4 -115 -9 -125 -10 -20 -4
-85 -13 -157 -22 -27 -3 -52 -8 -55 -9 -3 -2 -26 -6 -50 -10 -51 -7 -351 -75
-362 -82 -5 -2 -16 -6 -25 -8 -67 -13 -368 -121 -489 -175 -727 -324 -1316
-827 -1748 -1493 -42 -64 -76 -119 -76 -122 0 -3 -11 -22 -24 -43 -88 -141
-226 -443 -308 -677 -79 -224 -165 -588 -184 -780 -2 -22 -6 -53 -9 -70 -26
-169 -27 -716 0 -887 2 -13 6 -50 10 -83 4 -32 8 -67 10 -76 2 -9 6 -32 9 -50
3 -19 8 -44 10 -55 2 -12 7 -37 10 -55 5 -32 10 -56 20 -104 73 -353 264 -832
460 -1155 29 -47 58 -96 66 -110 8 -14 17 -27 20 -30 3 -3 18 -25 34 -50 16
-25 68 -97 115 -160 586 -784 1447 -1327 2401 -1514 69 -13 145 -27 170 -30
25 -3 54 -8 65 -10 24 -5 128 -15 250 -26 85 -7 544 -5 630 4 53 5 144 16 175
21 14 2 50 7 80 11 30 3 57 7 60 9 3 2 26 6 50 10 66 9 352 76 373 86 9 6 17
8 17 5 0 -8 281 90 401 139 654 268 1229 711 1659 1280 77 101 250 358 250
370 0 3 12 24 27 48 83 131 233 460 307 676 37 106 113 372 121 426 3 17 10
50 15 75 16 71 40 220 46 275 2 28 6 59 9 70 26 128 27 718 0 887 -2 13 -6 50
-10 83 -4 32 -9 68 -11 79 -2 11 -6 38 -9 61 -3 22 -8 47 -10 55 -2 8 -7 31
-10 50 -13 79 -60 264 -102 400 -234 759 -698 1437 -1326 1934 -304 241 -647
439 -1002 579 -120 47 -307 111 -355 122 -8 2 -58 15 -110 29 -158 42 -413 89
-560 102 -41 3 -79 9 -84 11 -9 6 -551 14 -557 9z"/>
</g>
</svg>
